<mxfile host="Electron" modified="2023-11-19T13:31:39.177Z" agent="Mozilla/5.0 (X11; Linux x86_64) AppleWebKit/537.36 (KHTML, like Gecko) draw.io/21.1.2 Chrome/106.0.5249.199 Electron/21.4.3 Safari/537.36" etag="i3A8nGjFsuXqjHYEnaOn" version="21.1.2" type="device">
  <diagram name="Page-1" id="FoHRziENe1P9YW2tE9Rq">
    <mxGraphModel dx="980" dy="404" grid="1" gridSize="10" guides="1" tooltips="1" connect="1" arrows="1" fold="1" page="1" pageScale="1" pageWidth="850" pageHeight="1100" math="1" shadow="0">
      <root>
        <mxCell id="0" />
        <mxCell id="1" parent="0" />
        <mxCell id="UH28EQyYjjHQsiaiguUs-1" value="" style="endArrow=none;html=1;rounded=0;strokeColor=#FF3399;" edge="1" parent="1">
          <mxGeometry width="50" height="50" relative="1" as="geometry">
            <mxPoint x="320" y="360" as="sourcePoint" />
            <mxPoint x="400" y="360" as="targetPoint" />
          </mxGeometry>
        </mxCell>
        <mxCell id="UH28EQyYjjHQsiaiguUs-2" value="" style="endArrow=none;html=1;rounded=0;strokeColor=#FF9933;" edge="1" parent="1">
          <mxGeometry width="50" height="50" relative="1" as="geometry">
            <mxPoint x="320" y="340" as="sourcePoint" />
            <mxPoint x="400" y="340" as="targetPoint" />
          </mxGeometry>
        </mxCell>
        <mxCell id="UH28EQyYjjHQsiaiguUs-3" value="" style="endArrow=none;html=1;rounded=0;strokeColor=#33FFFF;" edge="1" parent="1">
          <mxGeometry width="50" height="50" relative="1" as="geometry">
            <mxPoint x="320" y="290" as="sourcePoint" />
            <mxPoint x="400" y="290" as="targetPoint" />
          </mxGeometry>
        </mxCell>
        <mxCell id="UH28EQyYjjHQsiaiguUs-4" value="" style="endArrow=none;html=1;rounded=0;strokeWidth=0.4;strokeColor=#CCCCCC;" edge="1" parent="1">
          <mxGeometry width="50" height="50" relative="1" as="geometry">
            <mxPoint x="320" y="390" as="sourcePoint" />
            <mxPoint x="400" y="390" as="targetPoint" />
          </mxGeometry>
        </mxCell>
        <mxCell id="UH28EQyYjjHQsiaiguUs-5" value="" style="endArrow=none;html=1;rounded=0;strokeWidth=0.4;strokeColor=#B3B3B3;" edge="1" parent="1">
          <mxGeometry width="50" height="50" relative="1" as="geometry">
            <mxPoint x="320" y="391" as="sourcePoint" />
            <mxPoint x="400" y="391" as="targetPoint" />
          </mxGeometry>
        </mxCell>
        <mxCell id="UH28EQyYjjHQsiaiguUs-6" value="$$\ket{\epsilon_1}$$" style="text;html=1;align=center;verticalAlign=middle;resizable=0;points=[];autosize=1;strokeColor=none;fillColor=none;fontSize=9;fontColor=#FF3399;" vertex="1" parent="1">
          <mxGeometry x="360" y="350" width="110" height="20" as="geometry" />
        </mxCell>
        <mxCell id="UH28EQyYjjHQsiaiguUs-7" value="$$\ket{\epsilon_2}$$" style="text;html=1;align=center;verticalAlign=middle;resizable=0;points=[];autosize=1;strokeColor=none;fillColor=none;fontSize=9;fontColor=#FF9933;" vertex="1" parent="1">
          <mxGeometry x="360" y="330" width="110" height="20" as="geometry" />
        </mxCell>
        <mxCell id="UH28EQyYjjHQsiaiguUs-8" value="$$\ket{\epsilon_3}$$" style="text;html=1;align=center;verticalAlign=middle;resizable=0;points=[];autosize=1;strokeColor=none;fillColor=none;fontSize=9;fontColor=#33FFFF;" vertex="1" parent="1">
          <mxGeometry x="360" y="280" width="110" height="20" as="geometry" />
        </mxCell>
        <mxCell id="UH28EQyYjjHQsiaiguUs-9" value="$$\vdots$$" style="text;html=1;align=center;verticalAlign=middle;resizable=0;points=[];autosize=1;strokeColor=none;fillColor=none;" vertex="1" parent="1">
          <mxGeometry x="320" y="250" width="80" height="30" as="geometry" />
        </mxCell>
        <mxCell id="UH28EQyYjjHQsiaiguUs-10" value="$$\ket{d_1}$$" style="text;html=1;align=center;verticalAlign=middle;resizable=0;points=[];autosize=1;strokeColor=none;fillColor=none;fontSize=9;fontColor=#CCCCCC;" vertex="1" parent="1">
          <mxGeometry x="370" y="370" width="80" height="20" as="geometry" />
        </mxCell>
        <mxCell id="UH28EQyYjjHQsiaiguUs-11" value="$$\ket{d_2}$$" style="text;html=1;align=center;verticalAlign=middle;resizable=0;points=[];autosize=1;strokeColor=none;fillColor=none;fontSize=9;fontColor=#B3B3B3;" vertex="1" parent="1">
          <mxGeometry x="370" y="390" width="80" height="20" as="geometry" />
        </mxCell>
      </root>
    </mxGraphModel>
  </diagram>
</mxfile>
